<svg xmlns="http://www.w3.org/2000/svg" width="29" height="29" viewBox="0 0 29 29">
  <path fill="currentColor" d="M14.4560401,0 C17.1049052,0 19.5283349,0.66517078 21.7263293,1.99551234 C23.9243237,3.3258539 25.6996269,5.11892296 27.0522388,7.37471952 C28.4048507,9.63051608 29.0529773,12.1176764 28.9966185,14.8362004 C28.9966185,18.0752929 28.0666978,20.9962603 26.2068563,23.5991025 C24.3470149,26.2019447 21.979944,27.9950137 19.1056437,28.9783096 C18.7674907,29.0361506 18.5138759,28.9783096 18.3447994,28.8047868 C18.1757229,28.631264 18.0911847,28.4288207 18.0911847,28.197457 C18.0911847,28.197457 18.0911847,27.705809 18.0911847,26.7225131 C18.0911847,25.7392172 18.0911847,24.8716031 18.0911847,24.1196709 C18.0911847,22.9050112 17.7530317,22.0084767 17.0767257,21.4300673 C17.8093905,21.3143854 18.4575171,21.1987036 19.0211054,21.0830217 C19.5846937,20.9673398 20.1764614,20.7070556 20.7964086,20.302169 C21.4163557,19.8972825 21.9235852,19.4634754 22.318097,19.0007479 C22.7126088,18.5380204 23.0507618,17.8728497 23.332556,17.0052356 C23.6143501,16.1376215 23.7552472,15.1543256 23.7552472,14.0553478 C23.7552472,12.4936425 23.2480177,11.1633009 22.2335588,10.0643231 C22.6844294,8.90750436 22.6280706,7.60608327 22.0644823,6.16005984 C21.7263293,6.04437796 21.2190998,6.1022189 20.5427938,6.33358265 C19.8664879,6.5649464 19.3028996,6.85415108 18.8520289,7.20119671 L18.0911847,7.63500374 C16.9640081,7.28795812 15.7522932,7.1144353 14.4560401,7.1144353 C13.159787,7.1144353 11.9762516,7.28795812 10.9054338,7.63500374 C10.6799984,7.51932186 10.3982043,7.34579905 10.0600513,7.1144353 C9.72189832,6.88307155 9.18648943,6.6517078 8.45382463,6.42034405 C7.72115983,6.1889803 7.18575093,6.1022189 6.84759795,6.16005984 C6.28400964,7.60608327 6.25583022,8.90750436 6.7630597,10.0643231 C5.74860075,11.1633009 5.24137127,12.4936425 5.24137127,14.0553478 C5.24137127,15.1543256 5.38226835,16.1376215 5.6640625,17.0052356 C5.94585665,17.8728497 6.25583022,18.5380204 6.59398321,19.0007479 C6.93213619,19.4634754 7.43936567,19.8972825 8.11567164,20.302169 C8.79197761,20.7070556 9.38374534,20.9673398 9.89097481,21.0830217 C10.3982043,21.1987036 11.0463308,21.3143854 11.8353545,21.4300673 C11.328125,21.8927948 11.0181514,22.5579656 10.9054338,23.4255797 C10.6799984,23.5412615 10.3982043,23.6280229 10.0600513,23.6858639 C9.72189832,23.7437048 9.35556592,23.7726253 8.9610541,23.7726253 C8.56654229,23.7726253 8.17203047,23.6280229 7.77751866,23.3388182 C7.38300684,23.0496136 7.01667444,22.644727 6.67852146,22.1241586 C6.45308613,21.719272 6.17129198,21.4011468 5.83313899,21.1697831 C5.49498601,20.9384193 5.18501244,20.7648965 4.90321828,20.6492147 L4.48052705,20.6492147 C4.1987329,20.6492147 4.02965641,20.6781351 3.97329757,20.7359761 C3.91693874,20.793817 3.88875933,20.8516579 3.88875933,20.9094989 C3.88875933,20.9673398 3.94511816,21.0541012 4.05783582,21.1697831 C4.17055348,21.285465 4.22691231,21.3722264 4.22691231,21.4300673 L4.39598881,21.5168287 C4.67778296,21.6325106 4.95957711,21.8927948 5.24137127,22.2976814 C5.52316542,22.7025679 5.72042133,23.0206931 5.83313899,23.2520568 L6.00221549,23.6858639 C6.17129198,24.2064323 6.45308613,24.6113189 6.84759795,24.9005236 C7.24210976,25.1897282 7.664801,25.3921715 8.11567164,25.5078534 C8.56654229,25.6235353 8.98923352,25.6524557 9.38374534,25.5946148 C9.77825715,25.5367739 10.1445896,25.5078534 10.4827425,25.5078534 L10.9054338,25.5078534 C10.9054338,25.9705809 10.9054338,26.5200698 10.9054338,27.1563201 C10.9054338,27.7925704 10.9054338,28.1396161 10.9054338,28.197457 C10.9054338,28.4866617 10.8208955,28.689105 10.651819,28.8047868 C10.4827425,28.9204687 10.2291278,28.9783096 9.89097481,28.9783096 C6.96031561,27.9950137 4.59324471,26.2019447 2.78976213,23.5991025 C0.98627954,20.9962603 0.0563588308,18.0752929 0,14.8362004 C0,12.1176764 0.648126555,9.63051608 1.94437966,7.37471952 C3.24063277,5.11892296 4.98775653,3.3258539 7.18575093,1.99551234 C9.38374534,0.66517078 11.8071751,6.55006673e-15 14.4560401,6.55006673e-15 Z M5.49498601,21.3433059 C5.55134484,21.227624 5.49498601,21.1408626 5.32590951,21.0830217 C5.21319185,21.0251808 5.15683302,21.0541012 5.15683302,21.1697831 C5.10047419,21.227624 5.12865361,21.285465 5.24137127,21.3433059 C5.35408893,21.4589878 5.43862718,21.4589878 5.49498601,21.3433059 Z M6.08675373,21.9506358 C6.14311256,21.8927948 6.11493315,21.8060334 6.00221549,21.6903515 C5.88949782,21.5746697 5.80495958,21.5457492 5.74860075,21.6035901 C5.63588308,21.6614311 5.63588308,21.7771129 5.74860075,21.9506358 C5.91767724,22.0663176 6.0303949,22.0663176 6.08675373,21.9506358 Z M6.67852146,22.8182498 C6.79123912,22.7604089 6.79123912,22.644727 6.67852146,22.4712042 C6.56580379,22.2976814 6.45308613,22.2687609 6.34036847,22.3844428 C6.22765081,22.4422837 6.22765081,22.5579656 6.34036847,22.7314884 C6.45308613,22.9050112 6.56580379,22.9339317 6.67852146,22.8182498 Z M7.43936567,23.6858639 C7.55208333,23.570182 7.52390392,23.4545001 7.35482743,23.3388182 C7.18575093,23.1652954 7.07303327,23.136375 7.01667444,23.2520568 C6.90395678,23.3677387 6.90395678,23.4834206 7.01667444,23.5991025 C7.18575093,23.7726253 7.32664801,23.8015457 7.43936567,23.6858639 Z M8.53836287,24.1196709 C8.53836287,24.003989 8.45382463,23.9172276 8.28474813,23.8593867 C8.05931281,23.8015457 7.94659515,23.8304662 7.94659515,23.9461481 C7.94659515,24.06183 8.00295398,24.1775118 8.11567164,24.2931937 C8.34110697,24.3510347 8.48200404,24.2931937 8.53836287,24.1196709 Z M9.72189832,24.2064323 C9.72189832,24.0907504 9.60918066,24.0329095 9.38374534,24.0329095 C9.15831001,24.0329095 9.04559235,24.0907504 9.04559235,24.2064323 C9.04559235,24.3799551 9.15831001,24.4667165 9.38374534,24.4667165 C9.60918066,24.4667165 9.72189832,24.3799551 9.72189832,24.2064323 Z M10.8208955,24.0329095 C10.7645367,23.9172276 10.651819,23.8593867 10.4827425,23.8593867 C10.2573072,23.9172276 10.172769,24.0329095 10.2291278,24.2064323 C10.2854866,24.3799551 10.3982043,24.4088756 10.5672808,24.2931937 C10.7363573,24.1775118 10.8208955,24.0907504 10.8208955,24.0329095 Z"/>
</svg>
