<svg xmlns="http://www.w3.org/2000/svg" width="30" height="30" viewBox="0 0 30 30">
  <path d="M0,15 C0,6.71572875 6.71390727,0 15,0 C23.2842712,0 30,6.71390727 30,15 C30,23.2842712 23.2860927,30 15,30 C6.71572875,30 0,23.2860927 0,15 Z M24,9.65642029 C23.3743056,9.93750792 22.7029444,10.1281383 21.9975556,10.2132447 C22.7178056,9.77596913 23.2691389,9.08238872 23.5304444,8.25847332 C22.8548333,8.66341862 22.1090833,8.95746089 21.3144722,9.11685934 C20.6781667,8.42865793 19.7730833,8 18.7691944,8 C16.84325,8 15.2816667,9.58319839 15.2816667,11.5347311 C15.2816667,11.8115099 15.3124722,12.0818396 15.3719722,12.340341 C12.4740278,12.1927707 9.90433333,10.785136 8.18447222,8.64618331 C7.88383333,9.16746694 7.71280556,9.77487081 7.71280556,10.4232508 C7.71280556,11.6499711 8.32894444,12.7323599 9.26377778,13.3656167 C8.69225,13.346241 8.15472222,13.1868426 7.68413889,12.9218919 L7.68413889,12.9660504 C7.68413889,14.6784854 8.88666667,16.1076644 10.4811667,16.4329386 C10.1890278,16.5126378 9.88097222,16.5567963 9.56227778,16.5567963 C9.33708333,16.5567963 9.11930556,16.534182 8.90577778,16.4910937 C9.34980556,17.8965881 10.6373333,18.9186533 12.1628056,18.9466747 C10.9698333,19.8944478 9.46561111,20.4577214 7.83180556,20.4577214 C7.55030556,20.4577214 7.27302778,20.4404861 7.00002778,20.4092541 C8.54355556,21.4141121 10.3760278,22 12.3455278,22 C18.76075,22 22.2674167,16.612811 22.2674167,11.9407747 L22.2557222,11.4830534 C22.9408889,10.9875945 23.5336389,10.3650957 24,9.65642029 Z"/>
</svg>
